<?xml version="1.0" encoding="utf-8"?>
<!-- Generator: Adobe Illustrator 16.0.0, SVG Export Plug-In . SVG Version: 6.00 Build 0)  -->
<!DOCTYPE svg PUBLIC "-//W3C//DTD SVG 1.1//EN" "http://www.w3.org/Graphics/SVG/1.1/DTD/svg11.dtd">
<svg version="1.1" id="Layer_1" xmlns="http://www.w3.org/2000/svg" xmlns:xlink="http://www.w3.org/1999/xlink" x="0px" y="0px"
	 width="103px" height="103px" viewBox="0 0 103 103" enable-background="new 0 0 103 103" xml:space="preserve">
<g>
	<path fill="#FFFFFF" d="M51.863,86.983c-4.23,0-8.348-1.288-12.241-3.829c-6.65-4.341-10.734-10.063-12.14-17.009
		c-0.174-0.862,0.367-1.142,0.919-1.303c5.374-1.565,10.785-2.562,16.084-2.961c1.736-0.132,3.505-0.22,5.215-0.306
		c0.781-0.039,1.561-0.077,2.342-0.121c8.562,0.136,16.222,1.261,23.442,3.44c0.308,0.093,0.95,0.285,0.798,1.054
		c-1.588,8.078-6.437,14.299-14.414,18.487C58.652,86.126,55.285,86.983,51.863,86.983z M52.057,62.13
		c-0.759,0.042-1.541,0.082-2.323,0.121c-1.706,0.085-3.47,0.172-5.197,0.303c-5.251,0.396-10.617,1.385-15.945,2.937
		c-0.521,0.151-0.502,0.246-0.446,0.522c1.368,6.76,5.354,12.338,11.847,16.577c3.78,2.468,7.774,3.719,11.871,3.719
		c3.311,0,6.572-0.831,9.692-2.47c7.788-4.089,12.52-10.151,14.066-18.018c0.028-0.146,0.032-0.168-0.33-0.277
		C68.131,63.381,60.531,62.265,52.057,62.13z"/>
</g>
<g>
	<g>
		<circle fill="#FFFFFF" cx="42.5" cy="38.544" r="3.593"/>
	</g>
</g>
<g>
	<g>
		<circle fill="#FFFFFF" cx="62.339" cy="38.961" r="3.593"/>
	</g>
</g>
<g>
	<path fill="#FFFFFF" d="M51.4,94.368c-23.68,0-42.947-19.267-42.947-42.948S27.72,8.473,51.4,8.473
		c23.681,0,42.947,19.266,42.947,42.947C94.347,75.103,75.081,94.368,51.4,94.368z M51.4,9.148
		c-23.309,0-42.271,18.963-42.271,42.271S28.092,93.692,51.4,93.692c23.309,0,42.272-18.964,42.272-42.272
		C93.672,28.112,74.708,9.148,51.4,9.148z"/>
</g>
<g>
	<path fill="#FFFFFF" d="M35.832,53.805c-8.413,0-15.258-6.844-15.258-15.257c0-8.413,6.845-15.258,15.258-15.258
		c8.414,0,15.258,6.845,15.258,15.258C51.089,46.961,44.245,53.805,35.832,53.805z M35.832,23.965
		c-8.041,0-14.583,6.542-14.583,14.583c0,8.042,6.542,14.583,14.583,14.583s14.583-6.541,14.583-14.583
		C50.414,30.507,43.873,23.965,35.832,23.965z"/>
</g>
<g>
	<path fill="#FFFFFF" d="M69.613,53.805c-8.414,0-15.258-6.844-15.258-15.257c0-8.413,6.844-15.258,15.258-15.258
		c8.413,0,15.259,6.845,15.259,15.258C84.872,46.961,78.026,53.805,69.613,53.805z M69.613,23.965
		c-8.041,0-14.583,6.542-14.583,14.583c0,8.042,6.542,14.583,14.583,14.583c8.04,0,14.582-6.541,14.582-14.583
		C84.195,30.507,77.653,23.965,69.613,23.965z"/>
</g>
</svg>
