<?xml version="1.0" encoding="utf-8"?>
<!-- Generator: Adobe Illustrator 16.0.0, SVG Export Plug-In . SVG Version: 6.00 Build 0)  -->
<!DOCTYPE svg PUBLIC "-//W3C//DTD SVG 1.1//EN" "http://www.w3.org/Graphics/SVG/1.1/DTD/svg11.dtd">
<svg version="1.1" id="Layer_1" xmlns="http://www.w3.org/2000/svg" xmlns:xlink="http://www.w3.org/1999/xlink" x="0px" y="0px"
	 width="100px" height="100px" viewBox="0 0 100 100" enable-background="new 0 0 100 100" xml:space="preserve">
<g>
	<path fill="#FFFFFF" d="M50.327,83.632c-4.373,0-8.629-1.331-12.653-3.957c-6.875-4.487-11.097-10.403-12.549-17.583
		c-0.18-0.891,0.38-1.181,0.951-1.347c5.554-1.618,11.148-2.648,16.625-3.062c1.795-0.136,3.623-0.228,5.392-0.315
		c0.807-0.041,1.614-0.08,2.421-0.125c8.851,0.141,16.769,1.304,24.233,3.556c0.318,0.097,0.981,0.295,0.824,1.089
		c-1.641,8.351-6.653,14.781-14.899,19.111C57.344,82.746,53.864,83.632,50.327,83.632z M50.527,57.941
		c-0.785,0.044-1.593,0.085-2.401,0.125c-1.764,0.088-3.586,0.179-5.373,0.314c-5.429,0.409-10.975,1.431-16.483,3.036
		c-0.539,0.156-0.52,0.253-0.461,0.539c1.414,6.989,5.533,12.755,12.246,17.137c3.907,2.55,8.037,3.843,12.271,3.843
		c3.423,0,6.794-0.858,10.02-2.553c8.05-4.227,12.942-10.494,14.54-18.625c0.03-0.151,0.034-0.174-0.341-0.287
		C67.143,59.235,59.287,58.081,50.527,57.941z"/>
</g>
<g>
	<path fill="#FFFFFF" d="M49.848,95.264c-24.479,0-44.395-19.916-44.395-44.396S25.369,6.473,49.848,6.473
		s44.395,19.916,44.395,44.395C94.243,75.349,74.327,95.264,49.848,95.264z M49.848,7.171c-24.095,0-43.696,19.602-43.696,43.697
		s19.602,43.696,43.696,43.696c24.093,0,43.696-19.602,43.696-43.696C93.544,26.774,73.941,7.171,49.848,7.171z"/>
</g>
<g>
	<path fill="#FFFFFF" d="M24.842,35.544c0,0,3.65-3.319,7.68-3.319c4.029,0,7.68,3.319,7.68,3.319"/>
	<path fill="#FFFFFF" d="M40.201,36.543c-0.239,0-0.479-0.084-0.671-0.258c-0.034-0.03-3.426-3.061-7.009-3.061
		c-3.584,0-6.976,3.029-7.009,3.061c-0.409,0.371-1.041,0.339-1.412-0.069c-0.37-0.408-0.34-1.039,0.067-1.41
		c0.161-0.146,3.987-3.58,8.354-3.58c4.366,0,8.191,3.433,8.353,3.58c0.407,0.371,0.438,1.002,0.066,1.41
		C40.745,36.433,40.474,36.543,40.201,36.543z"/>
</g>
<g>
	<path fill="#FFFFFF" d="M60.82,35.544c0,0,3.65-3.319,7.679-3.319c4.03,0,7.68,3.319,7.68,3.319"/>
	<path fill="#FFFFFF" d="M76.18,36.543c-0.24,0-0.48-0.084-0.672-0.258c-0.033-0.03-3.425-3.061-7.009-3.061
		c-3.583,0-6.975,3.029-7.009,3.061c-0.408,0.37-1.04,0.34-1.412-0.069c-0.369-0.408-0.339-1.039,0.068-1.41
		c0.161-0.146,3.986-3.58,8.352-3.58c4.366,0,8.192,3.433,8.353,3.58c0.408,0.371,0.438,1.002,0.067,1.41
		C76.723,36.433,76.451,36.543,76.18,36.543z"/>
</g>
</svg>
